<svg width="14" height="15" viewBox="0 0 14 15" fill="none" xmlns="http://www.w3.org/2000/svg">
<mask id="mask0_1091_269" style="mask-type:luminance" maskUnits="userSpaceOnUse" x="0" y="3" width="14" height="12">
<path fill-rule="evenodd" clip-rule="evenodd" d="M0.333252 3.36011H13.3905V14.1478H0.333252V3.36011Z" fill="white"/>
</mask>
<g mask="url(#mask0_1091_269)">
<path fill-rule="evenodd" clip-rule="evenodd" d="M3.47694 4.36011C3.18294 4.36011 2.20027 4.47877 1.91827 6.00144L1.40361 10.0014C1.23627 11.1234 1.36561 11.9354 1.78894 12.4268C2.20694 12.9121 2.95494 13.1481 4.07494 13.1481H9.64027C10.3389 13.1481 11.2929 13.0088 11.8689 12.3434C12.3263 11.8161 12.4836 11.0308 12.3369 10.0088L11.8176 5.97411C11.5963 4.98011 11.0123 4.36011 10.2629 4.36011H3.47694ZM9.64027 14.1481H4.07494C2.64627 14.1481 1.65094 13.7981 1.03161 13.0788C0.409606 12.3574 0.201606 11.2754 0.413606 9.86344L0.930939 5.84611C1.27094 4.00411 2.51427 3.36011 3.47694 3.36011H10.2629C11.2296 3.36011 12.4049 4.00211 12.8016 5.80277L13.3276 9.87411C13.5163 11.1881 13.2803 12.2421 12.6249 12.9981C11.9729 13.7501 10.9409 14.1481 9.64027 14.1481Z" fill="#17A2B8"/>
</g>
<path fill-rule="evenodd" clip-rule="evenodd" d="M9.7319 4.2135C9.4559 4.2135 9.2319 3.9895 9.2319 3.7135C9.2319 2.40083 8.1639 1.3335 6.8519 1.3335H6.8419C6.21456 1.3335 5.60323 1.58616 5.1599 2.02683C4.71456 2.47016 4.45923 3.0855 4.45923 3.7135C4.45923 3.9895 4.23523 4.2135 3.95923 4.2135C3.68323 4.2135 3.45923 3.9895 3.45923 3.7135C3.45923 2.82083 3.8219 1.94816 4.4539 1.31816C5.0839 0.692163 5.95256 0.333496 6.8399 0.333496H6.8539C8.7159 0.333496 10.2319 1.8495 10.2319 3.7135C10.2319 3.9895 10.0079 4.2135 9.7319 4.2135Z" fill="#17A2B8"/>
<path fill-rule="evenodd" clip-rule="evenodd" d="M8.82876 7.21606H8.7981C8.5221 7.21606 8.2981 6.99206 8.2981 6.71606C8.2981 6.44006 8.5221 6.21606 8.7981 6.21606C9.0741 6.21606 9.31343 6.44006 9.31343 6.71606C9.31343 6.99206 9.10476 7.21606 8.82876 7.21606Z" fill="#17A2B8"/>
<path fill-rule="evenodd" clip-rule="evenodd" d="M4.94138 7.21606H4.91138C4.63538 7.21606 4.41138 6.99206 4.41138 6.71606C4.41138 6.44006 4.63538 6.21606 4.91138 6.21606C5.18738 6.21606 5.42671 6.44006 5.42671 6.71606C5.42671 6.99206 5.21738 7.21606 4.94138 7.21606Z" fill="#17A2B8"/>
</svg>
