<svg width="16" height="16" viewBox="0 0 16 16" fill="none" xmlns="http://www.w3.org/2000/svg">
<path fill-rule="evenodd" clip-rule="evenodd" d="M2.03199 0H4.73598C5.86397 0 6.76797 0.920013 6.76797 2.04883V4.77607C6.76797 5.91208 5.86397 6.82409 4.73598 6.82409H2.03199C0.911995 6.82409 0 5.91208 0 4.77607V2.04883C0 0.920013 0.911995 0 2.03199 0ZM2.03199 9.17591H4.73598C5.86397 9.17591 6.76797 10.0887 6.76797 11.2247V13.952C6.76797 15.08 5.86397 16 4.73598 16H2.03199C0.911995 16 0 15.08 0 13.952V11.2247C0 10.0887 0.911995 9.17591 2.03199 9.17591ZM13.968 0H11.264C10.136 0 9.23199 0.920013 9.23199 2.04883V4.77607C9.23199 5.91208 10.136 6.82409 11.264 6.82409H13.968C15.088 6.82409 16 5.91208 16 4.77607V2.04883C16 0.920013 15.088 0 13.968 0ZM11.2639 9.17591H13.9679C15.0879 9.17591 15.9999 10.0887 15.9999 11.2247V13.952C15.9999 15.08 15.0879 16 13.9679 16H11.2639C10.1359 16 9.23193 15.08 9.23193 13.952V11.2247C9.23193 10.0887 10.1359 9.17591 11.2639 9.17591Z" fill="black"/>
</svg>
