<svg width="6" height="6" viewBox="0 0 6 6" fill="none" xmlns="http://www.w3.org/2000/svg">
<path fill-rule="evenodd" clip-rule="evenodd" d="M4.77476 2.39951C4.77476 2.33051 4.71876 2.27451 4.64976 2.27451H1.35076C1.28151 2.27451 1.22576 2.33051 1.22576 2.39951C1.22576 2.64876 1.22126 2.88101 1.21701 3.09626C1.19851 4.03351 1.18626 4.65276 1.56501 5.03901C1.83401 5.31326 2.27576 5.43576 2.99751 5.43576C3.72001 5.43576 4.16251 5.31301 4.43226 5.03826C4.81276 4.65026 4.80076 4.02801 4.78301 3.08551C4.77901 2.87326 4.77476 2.64451 4.77476 2.39951Z" fill="#FF0000" fill-opacity="0.75"/>
<path fill-rule="evenodd" clip-rule="evenodd" d="M5.01876 1.4437H3.98351C3.97326 1.2802 3.92801 1.0497 3.76526 0.862703C3.59326 0.664953 3.33576 0.564453 2.99976 0.564453C2.66401 0.564453 2.40651 0.664953 2.23451 0.862703C2.07176 1.0497 2.02626 1.2802 2.01601 1.4437H0.981262C0.877762 1.4437 0.793762 1.5277 0.793762 1.6312C0.793762 1.7347 0.877762 1.8187 0.981262 1.8187H5.01876C5.12226 1.8187 5.20626 1.7347 5.20626 1.6312C5.20626 1.5277 5.12226 1.4437 5.01876 1.4437Z" fill="#FF0000" fill-opacity="0.75"/>
</svg>
