<svg width="17" height="16" viewBox="0 0 17 16" fill="none" xmlns="http://www.w3.org/2000/svg">
<path d="M5.83333 4.83325C5.55719 4.83325 5.33333 5.05711 5.33333 5.33325C5.33333 5.60939 5.55719 5.83325 5.83333 5.83325H7.83333C8.10948 5.83325 8.33333 5.60939 8.33333 5.33325C8.33333 5.05711 8.10948 4.83325 7.83333 4.83325H5.83333Z" fill="#6C757D"/>
<path d="M5.83333 7.49992C5.55719 7.49992 5.33333 7.72378 5.33333 7.99992C5.33333 8.27606 5.55719 8.49992 5.83333 8.49992H11.1667C11.4428 8.49992 11.6667 8.27606 11.6667 7.99992C11.6667 7.72378 11.4428 7.49992 11.1667 7.49992H5.83333Z" fill="#6C757D"/>
<path d="M5.83333 10.1666C5.55719 10.1666 5.33333 10.3904 5.33333 10.6666C5.33333 10.9427 5.55719 11.1666 5.83333 11.1666H7.83333C8.10948 11.1666 8.33333 10.9427 8.33333 10.6666C8.33333 10.3904 8.10948 10.1666 7.83333 10.1666H5.83333Z" fill="#6C757D"/>
<path fill-rule="evenodd" clip-rule="evenodd" d="M11.4757 0.915737C10.7143 0.833242 9.75452 0.833247 8.53017 0.833252H8.46983C7.24548 0.833247 6.28574 0.833242 5.52432 0.915737C4.74729 0.999923 4.11771 1.1748 3.58016 1.56535C3.25473 1.80179 2.96854 2.08798 2.7321 2.41341C2.34155 2.95096 2.16667 3.58054 2.08249 4.35757C1.99999 5.11899 1.99999 6.07873 2 7.30308V8.69675C1.99999 9.92111 1.99999 10.8808 2.08249 11.6423C2.16667 12.4193 2.34155 13.0489 2.7321 13.5864C2.96854 13.9119 3.25473 14.198 3.58016 14.4345C4.11771 14.825 4.74729 14.9999 5.52432 15.0841C6.28573 15.1666 7.24544 15.1666 8.46977 15.1666H8.53018C9.75451 15.1666 10.7143 15.1666 11.4757 15.0841C12.2527 14.9999 12.8823 14.825 13.4198 14.4345C13.7453 14.198 14.0315 13.9119 14.2679 13.5864C14.6585 13.0489 14.8333 12.4193 14.9175 11.6423C15 10.8809 15 9.92114 15 8.69682V7.30307C15 6.07874 15 5.11898 14.9175 4.35757C14.8333 3.58054 14.6585 2.95096 14.2679 2.41341C14.0315 2.08798 13.7453 1.80179 13.4198 1.56535C12.8823 1.1748 12.2527 0.999923 11.4757 0.915737ZM4.16794 2.37437C4.50661 2.12831 4.94009 1.98489 5.63203 1.90992C6.33333 1.83394 7.23895 1.83325 8.5 1.83325C9.76105 1.83325 10.6667 1.83394 11.368 1.90992C12.0599 1.98489 12.4934 2.12831 12.8321 2.37437C13.0726 2.54913 13.2841 2.76066 13.4589 3.00119C13.7049 3.33986 13.8484 3.77334 13.9233 4.46528C13.9993 5.16658 14 6.0722 14 7.33325V8.66658C14 9.92763 13.9993 10.8333 13.9233 11.5346C13.8484 12.2265 13.7049 12.66 13.4589 12.9986C13.2841 13.2392 13.0726 13.4507 12.8321 13.6255C12.4934 13.8715 12.0599 14.015 11.368 14.0899C10.6667 14.1659 9.76105 14.1666 8.5 14.1666C7.23895 14.1666 6.33333 14.1659 5.63203 14.0899C4.94009 14.015 4.50661 13.8715 4.16794 13.6255C3.92741 13.4507 3.71588 13.2392 3.54112 12.9986C3.29506 12.66 3.15163 12.2265 3.07667 11.5346C3.00069 10.8333 3 9.92763 3 8.66658V7.33325C3 6.0722 3.00069 5.16658 3.07667 4.46528C3.15163 3.77334 3.29506 3.33986 3.54112 3.00119C3.71588 2.76066 3.92741 2.54913 4.16794 2.37437Z" fill="#6C757D"/>
</svg>
