<svg width="16" height="16" viewBox="0 0 16 16" fill="none" xmlns="http://www.w3.org/2000/svg">
<g clip-path="url(#clip0_1014_1613)">
<path d="M8 11.3333V11.6666V11.9999" stroke="#28A745" stroke-linecap="round"/>
<path d="M8 4V4.33333V4.66667" stroke="#28A745" stroke-linecap="round"/>
<path d="M10 6.33341C10 5.41294 9.10457 4.66675 8 4.66675C6.89543 4.66675 6 5.41294 6 6.33341C6 7.25389 6.89543 8.00008 8 8.00008C9.10457 8.00008 10 8.74627 10 9.66675C10 10.5872 9.10457 11.3334 8 11.3334C6.89543 11.3334 6 10.5872 6 9.66675" stroke="#28A745" stroke-linecap="round"/>
<path d="M4.66659 2.22513C5.64716 1.6579 6.78563 1.33325 7.99992 1.33325C11.6818 1.33325 14.6666 4.31802 14.6666 7.99992C14.6666 11.6818 11.6818 14.6666 7.99992 14.6666C4.31802 14.6666 1.33325 11.6818 1.33325 7.99992C1.33325 6.78563 1.6579 5.64716 2.22513 4.66659" stroke="#28A745" stroke-linecap="round"/>
</g>
<defs>
<clipPath id="clip0_1014_1613">
<rect width="16" height="16" fill="white"/>
</clipPath>
</defs>
</svg>
