<svg width="18" height="18" viewBox="0 0 18 18" fill="none" xmlns="http://www.w3.org/2000/svg">
<path fill-rule="evenodd" clip-rule="evenodd" d="M11.965 3.24413C11.3814 2.90718 10.8948 2.6262 10.4785 2.4551C10.0391 2.2745 9.60132 2.18255 9.13468 2.30758C8.66804 2.43262 8.33489 2.73114 8.04465 3.10725C7.76967 3.46359 7.48872 3.95023 7.15181 4.53382L4.2451 9.56831C4.04968 9.90615 3.89005 10.1821 3.80936 10.4785C3.79783 10.5208 3.78792 10.5635 3.77974 10.607C3.71431 10.9542 3.7677 11.3028 3.83522 11.7437L3.85342 11.8629C3.97806 12.6814 4.08079 13.3561 4.23574 13.8677C4.3978 14.4028 4.64691 14.8659 5.13687 15.1488C5.62682 15.4317 6.15247 15.4159 6.69688 15.2887C7.21743 15.167 7.85308 14.9187 8.62426 14.6174L8.73656 14.5735C9.15216 14.4116 9.48077 14.2835 9.74879 14.0532C10.0168 13.8229 10.1929 13.5173 10.4156 13.1308L13.3222 8.09632C13.6592 7.51276 13.9402 7.02613 14.1113 6.60982C14.2919 6.1704 14.3838 5.73263 14.2588 5.26599C14.1338 4.79935 13.8352 4.46621 13.4591 4.17596C13.1028 3.90098 12.6161 3.62004 12.0326 3.28313L11.965 3.24413ZM12.0472 8.05473L7.82534 5.61723L5.25776 10.0644C4.97805 10.5489 4.91075 10.6801 4.88529 10.8153C4.85982 10.9504 4.87476 11.0971 4.95899 11.6502C5.09192 12.523 5.18375 13.1167 5.31245 13.5416C5.43677 13.9521 5.56497 14.0969 5.69937 14.1745C5.83376 14.2521 6.02328 14.2907 6.44094 14.1932C6.87329 14.0921 7.43337 13.8748 8.25572 13.5535C8.7768 13.35 8.91131 13.2895 9.01563 13.1999C9.11994 13.1103 9.19992 12.9864 9.47964 12.5019L12.0472 8.05473ZM12.6085 7.07977C12.8193 6.70833 12.9713 6.42398 13.0707 6.18215C13.2035 5.85916 13.2079 5.69067 13.1721 5.55716C13.1364 5.42365 13.0483 5.27995 12.7718 5.0666C12.4824 4.84328 12.0624 4.59941 11.4363 4.23791C10.8101 3.8764 10.3889 3.6346 10.0508 3.49564C9.72785 3.36289 9.55936 3.35847 9.42585 3.39425C9.29234 3.43002 9.14863 3.51809 8.93529 3.79456C8.77555 4.00154 8.60531 4.27536 8.38902 4.64363L12.6085 7.07977Z" fill="#2D264B"/>
</svg>
