<svg width="16" height="17" viewBox="0 0 16 17" fill="none" xmlns="http://www.w3.org/2000/svg">
<mask id="mask0_998_2840" style="mask-type:luminance" maskUnits="userSpaceOnUse" x="1" y="4" width="14" height="12">
<path fill-rule="evenodd" clip-rule="evenodd" d="M1.33325 4.86011H14.3905V15.6478H1.33325V4.86011Z" fill="white"/>
</mask>
<g mask="url(#mask0_998_2840)">
<path fill-rule="evenodd" clip-rule="evenodd" d="M4.47694 5.86011C4.18294 5.86011 3.20027 5.97877 2.91827 7.50144L2.40361 11.5014C2.23627 12.6234 2.36561 13.4354 2.78894 13.9268C3.20694 14.4121 3.95494 14.6481 5.07494 14.6481H10.6403C11.3389 14.6481 12.2929 14.5088 12.8689 13.8434C13.3263 13.3161 13.4836 12.5308 13.3369 11.5088L12.8176 7.47411C12.5963 6.48011 12.0123 5.86011 11.2629 5.86011H4.47694ZM10.6403 15.6481H5.07494C3.64627 15.6481 2.65094 15.2981 2.03161 14.5788C1.40961 13.8574 1.20161 12.7754 1.41361 11.3634L1.93094 7.34611C2.27094 5.50411 3.51427 4.86011 4.47694 4.86011H11.2629C12.2296 4.86011 13.4049 5.50211 13.8016 7.30277L14.3276 11.3741C14.5163 12.6881 14.2803 13.7421 13.6249 14.4981C12.9729 15.2501 11.9409 15.6481 10.6403 15.6481Z" fill="black"/>
</g>
<path fill-rule="evenodd" clip-rule="evenodd" d="M10.7319 5.7135C10.4559 5.7135 10.2319 5.4895 10.2319 5.2135C10.2319 3.90083 9.1639 2.8335 7.8519 2.8335H7.8419C7.21456 2.8335 6.60323 3.08616 6.1599 3.52683C5.71456 3.97016 5.45923 4.5855 5.45923 5.2135C5.45923 5.4895 5.23523 5.7135 4.95923 5.7135C4.68323 5.7135 4.45923 5.4895 4.45923 5.2135C4.45923 4.32083 4.8219 3.44816 5.4539 2.81816C6.0839 2.19216 6.95256 1.8335 7.8399 1.8335H7.8539C9.7159 1.8335 11.2319 3.3495 11.2319 5.2135C11.2319 5.4895 11.0079 5.7135 10.7319 5.7135Z" fill="black"/>
<path fill-rule="evenodd" clip-rule="evenodd" d="M9.82876 8.71606H9.7981C9.5221 8.71606 9.2981 8.49206 9.2981 8.21606C9.2981 7.94006 9.5221 7.71606 9.7981 7.71606C10.0741 7.71606 10.3134 7.94006 10.3134 8.21606C10.3134 8.49206 10.1048 8.71606 9.82876 8.71606Z" fill="black"/>
<path fill-rule="evenodd" clip-rule="evenodd" d="M5.94138 8.71606H5.91138C5.63538 8.71606 5.41138 8.49206 5.41138 8.21606C5.41138 7.94006 5.63538 7.71606 5.91138 7.71606C6.18738 7.71606 6.42671 7.94006 6.42671 8.21606C6.42671 8.49206 6.21738 8.71606 5.94138 8.71606Z" fill="black"/>
</svg>
