<svg width="25" height="24" viewBox="0 0 25 24" fill="none" xmlns="http://www.w3.org/2000/svg">
<path d="M6.84433 17.383C10.5857 21.1177 15.1422 24 18.857 24C20.5272 24 21.9897 23.4183 23.1678 22.1257C23.8538 21.3631 24.2812 20.4715 24.2812 19.5931C24.2812 18.9468 24.0349 18.3264 23.4141 17.887L19.4524 15.0692C18.8443 14.6556 18.3395 14.4489 17.8734 14.4489C17.278 14.4489 16.7599 14.7852 16.1645 15.3664L15.2455 16.2713C15.1812 16.3363 15.1047 16.3881 15.0203 16.4236C14.936 16.4591 14.8455 16.4776 14.7539 16.4781C14.5468 16.4781 14.3651 16.4009 14.2232 16.3358C13.4334 15.9096 12.0614 14.7334 10.7795 13.4668C9.51087 12.2002 8.3328 10.8304 7.91857 10.0292C7.82935 9.8711 7.78059 9.69344 7.77662 9.51199C7.77662 9.34436 7.82799 9.17563 7.97048 9.03391L8.87627 8.09098C9.45951 7.496 9.79586 6.97877 9.79586 6.38434C9.79586 5.91949 9.58875 5.4155 9.16181 4.80783L6.37818 0.891646C5.92529 0.271299 5.29124 0 4.59202 0C3.73759 0 2.84451 0.387648 2.09393 1.1249C0.837977 2.32699 0.28125 3.81252 0.28125 5.45354C0.28125 9.16294 3.11625 13.6609 6.84433 17.383Z" fill="#292D32"/>
</svg>
