<svg width="16" height="16" viewBox="0 0 16 16" fill="none" xmlns="http://www.w3.org/2000/svg">
<mask id="mask0_1014_1649" style="mask-type:luminance" maskUnits="userSpaceOnUse" x="1" y="4" width="14" height="12">
<path fill-rule="evenodd" clip-rule="evenodd" d="M1.33325 4.36011H14.3905V15.1478H1.33325V4.36011Z" fill="white"/>
</mask>
<g mask="url(#mask0_1014_1649)">
<path fill-rule="evenodd" clip-rule="evenodd" d="M4.47694 5.36011C4.18294 5.36011 3.20027 5.47877 2.91827 7.00144L2.40361 11.0014C2.23627 12.1234 2.36561 12.9354 2.78894 13.4268C3.20694 13.9121 3.95494 14.1481 5.07494 14.1481H10.6403C11.3389 14.1481 12.2929 14.0088 12.8689 13.3434C13.3263 12.8161 13.4836 12.0308 13.3369 11.0088L12.8176 6.97411C12.5963 5.98011 12.0123 5.36011 11.2629 5.36011H4.47694ZM10.6403 15.1481H5.07494C3.64627 15.1481 2.65094 14.7981 2.03161 14.0788C1.40961 13.3574 1.20161 12.2754 1.41361 10.8634L1.93094 6.84611C2.27094 5.00411 3.51427 4.36011 4.47694 4.36011H11.2629C12.2296 4.36011 13.4049 5.00211 13.8016 6.80277L14.3276 10.8741C14.5163 12.1881 14.2803 13.2421 13.6249 13.9981C12.9729 14.7501 11.9409 15.1481 10.6403 15.1481Z" fill="#F44336"/>
</g>
<path fill-rule="evenodd" clip-rule="evenodd" d="M10.7319 5.2135C10.4559 5.2135 10.2319 4.9895 10.2319 4.7135C10.2319 3.40083 9.1639 2.3335 7.8519 2.3335H7.8419C7.21456 2.3335 6.60323 2.58616 6.1599 3.02683C5.71456 3.47016 5.45923 4.0855 5.45923 4.7135C5.45923 4.9895 5.23523 5.2135 4.95923 5.2135C4.68323 5.2135 4.45923 4.9895 4.45923 4.7135C4.45923 3.82083 4.8219 2.94816 5.4539 2.31816C6.0839 1.69216 6.95256 1.3335 7.8399 1.3335H7.8539C9.7159 1.3335 11.2319 2.8495 11.2319 4.7135C11.2319 4.9895 11.0079 5.2135 10.7319 5.2135Z" fill="#F44336"/>
<path fill-rule="evenodd" clip-rule="evenodd" d="M9.82876 8.21606H9.7981C9.5221 8.21606 9.2981 7.99206 9.2981 7.71606C9.2981 7.44006 9.5221 7.21606 9.7981 7.21606C10.0741 7.21606 10.3134 7.44006 10.3134 7.71606C10.3134 7.99206 10.1048 8.21606 9.82876 8.21606Z" fill="#F44336"/>
<path fill-rule="evenodd" clip-rule="evenodd" d="M5.94138 8.21606H5.91138C5.63538 8.21606 5.41138 7.99206 5.41138 7.71606C5.41138 7.44006 5.63538 7.21606 5.91138 7.21606C6.18738 7.21606 6.42671 7.44006 6.42671 7.71606C6.42671 7.99206 6.21738 8.21606 5.94138 8.21606Z" fill="#F44336"/>
</svg>
