<svg width="21" height="21" viewBox="0 0 21 21" fill="none" xmlns="http://www.w3.org/2000/svg">
<path d="M9.15667 3.20367C9.70822 2.09358 11.2918 2.09358 11.8433 3.20367L13.1021 5.73708C13.3205 6.17667 13.7402 6.48159 14.2257 6.55347L17.0241 6.96773C18.2503 7.14925 18.7396 8.6553 17.8543 9.52289L15.8339 11.5029C15.4833 11.8464 15.323 12.3398 15.4047 12.8238L15.8755 15.6133C16.0817 16.8355 14.8006 17.7663 13.7019 17.1924L11.1945 15.8827C10.7594 15.6555 10.2406 15.6555 9.80554 15.8827L7.2981 17.1924C6.19939 17.7663 4.91827 16.8355 5.12455 15.6133L5.59531 12.8238C5.677 12.3398 5.5167 11.8464 5.16611 11.5029L3.14566 9.52289C2.26035 8.6553 2.7497 7.14925 3.97589 6.96773L6.77427 6.55347C7.25985 6.48159 7.67953 6.17667 7.89794 5.73708L9.15667 3.20367Z" fill="#FCD503"/>
</svg>
